HIERARCHY
ROOT SpineBase
{
  OFFSET 0.000000 0.000000 0.000000
  CHANNELS 6 Xposition Yposition Zposition Zrotation Xrotation Yrotation
  JOINT SpineMid
  {
    OFFSET 0.000000 29.224954 0.000000
    CHANNELS 3 Zrotation Xrotation Yrotation
    JOINT SpineShoulder
    {
      OFFSET -0.126390 21.610481 -0.610482
      CHANNELS 3 Zrotation Xrotation Yrotation
      JOINT Neck
      {
        OFFSET -0.071807 7.129070 -0.486144
        CHANNELS 3 Zrotation Xrotation Yrotation
        JOINT Head
        {
          OFFSET -1.103492 13.212887 0.592660
          CHANNELS 3 Zrotation Xrotation Yrotation
          End Site
          {
            OFFSET 0 0 0
          }
        }
      }
      JOINT ShoulderLeft
      {
        OFFSET -16.353889 -2.719865 3.911914
        CHANNELS 3 Zrotation Xrotation Yrotation
        JOINT ElbowLeft
        {
          OFFSET -3.842387 -25.029384 1.938533
          CHANNELS 3 Zrotation Xrotation Yrotation
          JOINT WristLeft
          {
            OFFSET -3.057768 -21.696822 -4.707584
            CHANNELS 3 Zrotation Xrotation Yrotation
            JOINT HandLeft
            {
              OFFSET 1.572137 -6.266456 -2.336651
              CHANNELS 3 Zrotation Xrotation Yrotation
              JOINT HandTipLeft
              {
                OFFSET 0.023096 -6.450418 -1.779669
                CHANNELS 3 Zrotation Xrotation Yrotation
                End Site
                {
                  OFFSET 0 0 0
                }
              }
              JOINT ThumbLeft
              {
                OFFSET 3.252274 1.758515 -2.636088
                CHANNELS 3 Zrotation Xrotation Yrotation
                End Site
                {
                  OFFSET 0 0 0
                }
              }
            }
          }
        }
      }
      JOINT ShoulderRight
      {
        OFFSET 15.222460 -3.326088 -6.163412
        CHANNELS 3 Zrotation Xrotation Yrotation
        JOINT ElbowRight
        {
          OFFSET 5.575922 -24.952525 -2.368445
          CHANNELS 3 Zrotation Xrotation Yrotation
          JOINT WristRight
          {
            OFFSET -0.243867 -20.686865 -3.871856
            CHANNELS 3 Zrotation Xrotation Yrotation
            JOINT HandRight
            {
              OFFSET -1.906876 -7.902836 -0.676723
              CHANNELS 3 Zrotation Xrotation Yrotation
              JOINT HandTipRight
              {
                OFFSET -0.305449 -6.409255 -1.759262
                CHANNELS 3 Zrotation Xrotation Yrotation
                End Site
                {
                  OFFSET 0 0 0
                }
              }
              JOINT ThumbRight
              {
                OFFSET -3.420097 0.702409 -1.335424
                CHANNELS 3 Zrotation Xrotation Yrotation
                End Site
                {
                  OFFSET 0 0 0
                }
              }
            }
          }
        }
      }
    }
  }
  JOINT HipLeft
  {
    OFFSET -5.950123 0.367063 -1.627480
    CHANNELS 3 Zrotation Xrotation Yrotation
    JOINT KneeLeft
    {
      OFFSET -9.146746 -30.259407 5.441514
      CHANNELS 3 Zrotation Xrotation Yrotation
      JOINT AnkleLeft
      {
        OFFSET -3.045154 -36.753173 8.498824
        CHANNELS 3 Zrotation Xrotation Yrotation
        JOINT FootLeft
        {
          OFFSET -2.612570 -4.220505 -12.456248
          CHANNELS 3 Zrotation Xrotation Yrotation
          End Site
          {
            OFFSET 0 0 0
          }
        }
      }
    }
  }
  JOINT HipRight
  {
    OFFSET 5.550059 0.964284 -4.936692
    CHANNELS 3 Zrotation Xrotation Yrotation
    JOINT KneeRight
    {
      OFFSET 4.575835 -32.643167 5.170419
      CHANNELS 3 Zrotation Xrotation Yrotation
      JOINT AnkleRight
      {
        OFFSET 0.377343 -33.600202 8.640882
        CHANNELS 3 Zrotation Xrotation Yrotation
        JOINT FootRight
        {
          OFFSET -3.489825 -3.514726 -13.559626
          CHANNELS 3 Zrotation Xrotation Yrotation
          End Site
          {
            OFFSET 0 0 0
          }
        }
      }
    }
  }
}
MOTION
Frames: 5
Frame Time: 0.033333
19.739394 73.629214 366.166711 -0.000000 0.000000 16.053335 -0.000000 0.000000 -16.053335 -0.000000 0.000000 0.000000 -0.000000 0.000000 0.000000 0.000000 0.000000 0.000000 -0.000000 0.000000 0.000000 -0.000000 0.000000 0.000000 -0.000000 0.000000 0.000000 -0.000000 0.000000 0.000000 0.000000 0.000000 0.000000 0.000000 0.000000 0.000000 -0.000000 0.000000 0.000000 -0.000000 0.000000 0.000000 -0.000000 0.000000 0.000000 -0.000000 0.000000 0.000000 0.000000 0.000000 0.000000 0.000000 0.000000 0.000000 -0.000000 0.000000 -16.053335 -0.000000 0.000000 0.000000 -0.000000 0.000000 0.000000 0.000000 0.000000 0.000000 -0.000000 0.000000 -16.053335 -0.000000 0.000000 0.000000 -0.000000 0.000000 0.000000 0.000000 0.000000 0.000000
19.712424 73.604601 366.204439 -0.041844 -0.004062 16.084062 0.041332 -0.007690 -16.084060 -0.000000 0.000000 0.000000 -0.000000 0.000000 0.000000 0.000000 0.000000 0.000000 -0.000000 0.000000 0.000000 0.334808 -2.203048 0.245436 -1.462975 -2.371909 -0.979721 1.061596 4.594690 0.702734 0.000000 0.000000 0.000000 0.000000 0.000000 0.000000 -0.000000 0.000000 0.000000 -0.000000 0.000000 0.000000 -0.000000 0.000000 0.000000 0.881231 -2.052548 -0.128957 0.000000 0.000000 0.000000 0.000000 0.000000 0.000000 0.041332 -0.007690 -16.084060 -0.000000 0.000000 0.000000 -0.000000 0.000000 0.000000 0.000000 0.000000 0.000000 0.041332 -0.007690 -16.084060 -0.000000 0.000000 0.000000 1.325813 -3.753710 -1.558032 0.000000 0.000000 0.000000
19.690016 73.579793 366.238888 -0.072502 -0.004433 16.106781 0.070886 -0.015855 -16.106774 -0.000000 0.000000 0.000000 -0.000000 0.000000 0.000000 0.000000 0.000000 0.000000 0.986786 -0.079683 0.089461 -0.380947 -3.230812 0.265291 -2.693862 -3.456428 -1.280063 1.961357 6.814220 0.841072 0.000000 0.000000 0.000000 0.000000 0.000000 0.000000 -0.000000 0.000000 0.000000 -0.000000 0.000000 0.000000 -0.664380 0.553692 -0.073367 2.225742 -4.155429 -0.112883 0.000000 0.000000 0.000000 0.000000 0.000000 0.000000 0.070886 -0.015855 -16.106774 -0.000000 0.000000 0.000000 -0.386678 0.145854 1.045297 0.000000 0.000000 0.000000 0.070886 -0.015855 -16.106774 -0.965685 0.280470 -0.243011 3.664548 -8.154437 -2.887283 0.000000 0.000000 0.000000
19.672168 73.554791 366.270057 -0.091991 -0.001119 16.121570 0.088685 -0.024469 -16.121552 -0.000000 0.000000 0.000000 -0.000000 0.000000 0.000000 0.000000 0.000000 0.000000 1.006032 -0.225466 0.114648 -0.181969 -3.158249 0.209701 -3.684710 -3.468844 -0.962002 2.771814 6.900322 0.517572 0.000000 0.000000 0.000000 0.000000 0.000000 0.000000 -0.000000 0.000000 0.000000 -0.000000 0.000000 0.000000 -0.892690 0.809834 -0.112377 2.941326 -5.487781 -0.100597 0.000000 0.000000 0.000000 0.000000 0.000000 0.000000 0.032054 0.818040 -16.413062 0.292403 -0.792170 0.293924 -0.452860 -0.268043 1.508060 0.000000 0.000000 0.000000 0.088685 -0.024469 -16.121552 -1.302170 0.389908 -0.326407 5.373155 -12.758153 -4.390698 0.000000 0.000000 0.000000
19.658881 73.529595 366.297946 -0.100325 0.005878 16.128490 0.094743 -0.033516 -16.128457 -0.000000 0.000000 0.000000 -0.000000 0.000000 0.000000 0.000000 0.000000 0.000000 0.709763 -0.442451 0.125718 0.285668 -1.977958 0.018061 -4.490680 -2.534812 -0.050142 3.112096 7.145756 -0.051602 0.000000 0.000000 0.000000 0.000000 0.000000 0.000000 -0.000000 0.000000 0.000000 -0.000000 0.000000 0.000000 -1.048981 1.050240 -0.153518 3.402578 -6.353256 -0.065498 0.000000 0.000000 0.000000 0.000000 0.000000 0.000000 0.099523 0.973189 -16.470969 0.744298 -1.711005 0.523455 -0.886941 -0.273520 1.778415 0.000000 0.000000 0.000000 0.094743 -0.033516 -16.128457 -1.539437 0.477776 -0.384601 6.967407 -17.680346 -5.910507 0.000000 0.000000 0.000000
